<svg height="40" width="159.24" xmlns="http://www.w3.org/2000/svg">
 <g fill="#0073f3">
  <path d="m12.078 11.809c0.76072 0.60899 1.3229 1.3493 1.6872 2.2203 0.36357 0.87147 0.54585 1.7977 0.54585 2.7784 0 0.43993-0.04254 0.8926-0.1273 1.3575-0.08476 0.4654-0.20724 0.91782-0.36814 1.3575-0.16065 0.43994-0.36763 0.85874-0.6212 1.2559-0.25357 0.39792-0.54991 0.74061-0.88828 1.028-0.40582 0.37196-0.82488 0.66831-1.2562 0.88802-0.43128 0.21997-0.87554 0.38927-1.332 0.50741-0.45674 0.11863-0.93029 0.19476-1.4209 0.22836-0.4906 0.03386-0.998 0.05092-1.5222 0.05092h-0.88802v-4.2629h0.73552c0.38902 0 0.76964-0.02953 1.1421-0.08914 0.37196-0.05906 0.69759-0.17312 0.97687-0.34218 0.27852-0.1688 0.50282-0.402 0.67238-0.69809 0.16828-0.29583 0.25358-0.68918 0.25358-1.18 0-0.50715-0.09319-0.9089-0.27878-1.2052-0.1865-0.295-0.4317-0.52-0.7359-0.672-0.305-0.152-0.6472-0.249-1.0278-0.292-0.3804-0.041-0.7737-0.063-1.18-0.063h-1.776v4.5419 4.2629 5.9628h-4.6687v-19.031h6.2164c0.4906 0 0.998 0.01246 1.5225 0.03768 0.52421 0.02571 1.0405 0.08045 1.5479 0.16498 0.50714 0.08501 1.0023 0.2243 1.4845 0.4188 0.48195 0.19476 0.9173 0.45292 1.3068 0.77396"/>
  <path d="m48.437 18.634-6.3944 10.277c-0.49085 0.16906-1.0151 0.30043-1.5734 0.39335-0.55806 0.09294-1.1332 0.13952-1.7251 0.13952-0.74468 0-1.4553-0.07615-2.132-0.22812-1.0996-0.23703-2.1101-0.64285-3.0317-1.2182-0.92239-0.57436-1.7216-1.2727-2.398-2.0933-0.6767-0.82055-1.2052-1.7465-1.5861-2.7786-0.38036-1.0314-0.57054-2.131-0.57054-3.2985 0-1.3702 0.2574-2.6302 0.77371-3.781 0.51606-1.1502 1.2218-2.1442 2.1187-2.9815 0.89643-0.8371 1.9369-1.4883 3.1211-1.9537 1.1839-0.46489 2.4527-0.69758 3.8062-0.69758 0.76097 0 1.5136 0.0886 2.2585 0.26656 0.74392 0.17745 1.4591 0.43561 2.1442 0.77371 0.68486 0.33861 1.3277 0.75283 1.9283 1.2437 0.60034 0.49035 1.1205 1.0403 1.5604 1.6487 0.57488 0.79535 0.98961 1.6414 1.2429 2.5375h-2.9683-2.2585c-0.43994-0.76098-1.0064-1.3486-1.7002-1.7633-0.69377-0.41447-1.4713-0.62172-2.3341-0.62172-0.74469 0-1.4255 0.14384-2.0426 0.43128-0.61764 0.28794-1.1464 0.67239-1.5864 1.1546-0.43943 0.48194-0.78236 1.0489-1.0273 1.7002-0.24568 0.65125-0.36789 1.3325-0.36789 2.0426 0 0.74444 0.11839 1.4507 0.35465 2.1185 0.23728 0.66882 0.57131 1.2523 1.0028 1.7511 0.43128 0.49901 0.95524 0.89668 1.5731 1.1925 0.61738 0.29584 1.3152 0.44426 2.0935 0.44426 0.10157 0 0.19451-0.0041 0.27904-0.013 0.08449-0.0084 0.16904-0.01246 0.25382-0.01246l2.0047-2.9181h-3.6035v-3.7555h6.1662 4.6181z"/>
  <path d="m59.071 14.498c-0.74468 0-1.4255 0.14384-2.0426 0.43128-0.6179 0.28794-1.1418 0.67696-1.5731 1.1671-0.43128 0.49086-0.76556 1.0578-1.0023 1.7002-0.23702 0.6431-0.35515 1.3282-0.35515 2.0556 0 0.74444 0.11813 1.4461 0.35515 2.106 0.23677 0.6599 0.57487 1.2348 1.0151 1.7254 0.43943 0.49086 0.97254 0.88421 1.5981 1.18 0.62605 0.29583 1.3201 0.444 2.0808 0.444 0.72714 0 1.3957-0.14817 2.0049-0.444 0.60843-0.29584 1.1289-0.69376 1.5604-1.1928 0.43121-0.499 0.76498-1.0739 1.0021-1.7256 0.23702-0.65099 0.35536-1.3231 0.35536-2.0171 0-0.71031-0.11835-1.3911-0.35536-2.0421-0.23709-0.6515-0.57514-1.231-1.0149-1.7386-0.44015-0.5074-0.96845-0.90915-1.5858-1.2052-0.61764-0.29558-1.2987-0.44401-2.0426-0.44401m-0.02573 14.945c-1.3025 0-2.537-0.23678-3.7041-0.71031-1.1673-0.47329-2.191-1.1291-3.0706-1.9667-0.87987-0.83736-1.5775-1.8267-2.0933-2.9688-0.5163-1.1418-0.77396-2.3726-0.77396-3.6919 0-1.37 0.24517-2.6727 0.73577-3.9077 0.27038-0.71006 0.66806-1.387 1.1928-2.0299 0.94708-1.2516 2.0765-2.1903 3.3874-2.8163 1.3106-0.62579 2.7616-0.93894 4.3518-0.93894 1.3361 0 2.5925 0.2411 3.768 0.72305 1.1754 0.48194 2.2027 1.1505 3.0826 2.0047 0.87963 0.85441 1.5734 1.8611 2.0811 3.0195 0.5074 1.1587 0.76121 2.4151 0.76121 3.768 0 1.3539-0.25382 2.6098-0.76121 3.7682-0.50765 1.1592-1.2015 2.1658-2.0811 3.0195-0.87983 0.85441-1.9117 1.5225-3.0951 2.0044-1.1841 0.48245-2.4451 0.7233-3.7812 0.7233"/>
  <path d="m76.829 29.444c-0.93032 0-1.7977-0.12247-2.601-0.36764-0.80345-0.24517-1.5059-0.60924-2.1059-1.0914-0.60089-0.48195-1.0706-1.0866-1.4087-1.8137-0.33837-0.72762-0.5074-1.582-0.5074-2.5632v-0.55833h4.644c0 0.30475 0.03813 0.60517 0.11382 0.90101 0.07638 0.29584 0.19043 0.56239 0.34298 0.79917 0.15221 0.23703 0.3505 0.42745 0.59621 0.57079 0.24444 0.14411 0.53641 0.21565 0.87529 0.21565 0.49034 0 0.91376-0.16905 1.2689-0.50741 0.35543-0.33835 0.53263-0.76098 0.53263-1.2686 0-0.30449-0.05532-0.55832-0.16474-0.76123-0.11022-0.2029-0.25789-0.38062-0.444-0.53286-0.18635-0.15225-0.39768-0.28336-0.63444-0.39335-0.23701-0.10972-0.48247-0.21564-0.73579-0.31697-0.28795-0.13519-0.56694-0.25358-0.83758-0.35567-0.27114-0.10133-0.54152-0.21106-0.8119-0.3297-0.59245-0.25357-1.1591-0.53693-1.7001-0.85009-0.54153-0.31263-1.0149-0.67645-1.4214-1.0912-0.40561-0.41422-0.73145-0.8921-0.97665-1.4336-0.24513-0.54101-0.36763-1.1668-0.36763-1.8776 0-0.86256 0.1859-1.6279 0.55782-2.2962 0.37198-0.66831 0.86309-1.2307 1.4721-1.6877 0.60876-0.45648 1.2944-0.80757 2.0553-1.0527 0.76096-0.24517 1.5392-0.36789 2.3341-0.36789 0.89669 0 1.8023 0.17363 2.715 0.52013 0.91421 0.34701 1.6665 0.85874 2.2585 1.5349 0.45646 0.59244 0.76121 1.1673 0.91368 1.7256 0.15229 0.55832 0.2452 1.2012 0.27908 1.9285h-4.6435c-0.05094-0.52446-0.19454-0.95549-0.43104-1.2941-0.23735-0.3381-0.6515-0.50766-1.2439-0.50766-0.42268 0-0.80328 0.13112-1.1414 0.3936-0.33856 0.26223-0.50766 0.61331-0.50766 1.0527 0 0.30476 0.06695 0.56698 0.20323 0.78669 0.11757 0.18636 0.3383 0.37654 0.65935 0.5708 0.32104 0.19451 0.6683 0.38495 1.04 0.5708 0.37166 0.18662 0.74032 0.35974 1.1039 0.52013 0.36439 0.16116 0.63853 0.28362 0.82521 0.36814 0.60893 0.27089 1.1754 0.56266 1.7001 0.87529 0.52422 0.31341 0.97666 0.67264 1.3575 1.0787 0.3801 0.40582 0.68051 0.87529 0.90047 1.4079 0.21969 0.53311 0.32994 1.1635 0.32994 1.8906 0 0.96415-0.16469 1.7974-0.49443 2.4993-0.33018 0.70217-0.7788 1.2857-1.3452 1.7508-0.56677 0.4654-1.2394 0.80783-2.0174 1.0275-0.77836 0.22022-1.6238 0.32995-2.5373 0.32995"/>
  <path d="m130.55 26.429c0.34303 0 0.63522 0.12297 0.87811 0.3684 0.2427 0.24568 0.36405 0.54406 0.36405 0.89514 0 0.35083-0.12135 0.651-0.36405 0.89898-0.24289 0.24848-0.53509 0.37221-0.87811 0.37221-0.34285 0-0.63545-0.12372-0.87859-0.37221-0.24281-0.24797-0.36406-0.54815-0.36406-0.89898 0-0.35108 0.12125-0.64947 0.36406-0.89514 0.24314-0.24543 0.53574-0.3684 0.87859-0.3684"/>
  <path d="m137.95 24.139c-0.12093-0.80146-0.61992-1.2299-1.417-1.2299-1.2283 0-1.6335 1.2714-1.6335 2.3221 0 1.0232 0.39232 2.2534 1.5933 2.2534 0.89133 0 1.4041-0.58048 1.5254-1.4517h1.85c-0.2427 1.8942-1.5255 2.9306-3.362 2.9306-2.1062 0-3.5236-1.5202-3.5236-3.6628 0-2.2259 1.2956-3.8711 3.5641-3.8711 1.6469 0 3.1589 0.88496 3.2811 2.7094h-1.8779z"/>
  <path d="m144 27.485c1.3101 0 1.7015-1.1472 1.7015-2.2809 0-1.1474-0.39138-2.2946-1.7015-2.2946-1.2963 0-1.6877 1.1472-1.6877 2.2946 0 1.1337 0.39138 2.2809 1.6877 2.2809m0-6.0547c2.201 0 3.6188 1.4932 3.6188 3.7738 0 2.2669-1.4178 3.7601-3.6188 3.7601-2.1871 0-3.6055-1.4932-3.6055-3.7601 0-2.2806 1.4183-3.7738 3.6055-3.7738"/>
  <path d="m148.58 21.623h1.8093v0.96822h0.0273c0.49944-0.73323 1.2281-1.1617 2.1335-1.1617 0.87725 0 1.6606 0.33198 2.038 1.1887 0.40548-0.62146 1.1346-1.1887 2.1072-1.1887 1.4849 0 2.5514 0.70548 2.5514 2.5574v4.783h-1.9169v-4.0501c0-0.95396-0.0811-1.7419-1.1747-1.7419-1.0804 0-1.2831 0.91221-1.2831 1.8109v3.9811h-1.9166v-4.0086c0-0.82997 0.0537-1.7834-1.1615-1.7834-0.37823 0-1.2959 0.24874-1.2959 1.6452v4.1468h-1.918v-7.1469z"/>
  <path d="m122.53 30.611h-0.007c-0.34608 0-0.68818-0.02139-1.0271-0.0639-0.0382 0.05271-0.0757 0.10566-0.11483 0.15785-0.006-0.000408-0.012-0.000408-0.0178-0.000995-3.2689 4.3866-8.496 7.2276-14.386 7.2276-4.2113 0-8.0828-1.4525-11.142-3.883-0.02198-0.01731-0.04455-0.03438-0.0662-0.05168-0.09471-0.07589-0.18762-0.15351-0.28087-0.23092-0.04178-0.03513-0.08419-0.06998-0.12653-0.10565-0.06916-0.05906-0.13694-0.1194-0.20544-0.17974-0.06339-0.05576-0.12756-0.11126-0.19043-0.16803-0.04279-0.03873-0.08471-0.07843-0.1273-0.11788-0.08674-0.07943-0.17286-0.15912-0.25741-0.24034-0.01564-0.01452-0.03049-0.02928-0.04613-0.04405-0.7579-0.73195-1.4512-1.5306-2.0709-2.3861-0.39742 0.05657-0.7956 0.08681-1.1948 0.08681-0.42898 0-0.86454-0.03208-1.3055-0.09396 0.66908 1.0805 1.439 2.093 2.2959 3.0233 0.01463 0.0163 0.02992 0.03234 0.04477 0.04812 0.05219 0.05578 0.10288 0.11151 0.15536 0.16676 0.03484 0.03616 0.06917 0.07255 0.1041 0.1082 0.03377 0.03488 0.06619 0.06973 0.10007 0.10413 0.05661 0.05805 0.11357 0.11532 0.17107 0.17287 0.01202 0.01198 0.02383 0.02417 0.03609 0.03641 1.0344 1.0314 2.1808 1.9499 3.421 2.7359-0.00021-0.0015-0.000567-0.0031-0.000567-0.0046 3.0907 1.9583 6.7559 3.0923 10.686 3.0923 3.8576 0 7.4598-1.0927 10.514-2.9848-0.002 0.0069-0.003 0.01374-0.004 0.02038 2.6618-1.6449 4.9095-3.8968 6.5487-6.5626-0.49467 0.09117-0.99733 0.13774-1.5055 0.13774m-31.215-21.213c0.387 0 0.7717 0.02953 1.1544 0.08551 1.0132-1.3942 2.2213-2.6376 3.5857-3.6883 0-0.00587 0-0.011717-0.0011-0.017311 3.0238-2.3252 6.8091-3.7094 10.918-3.7094 4.0177 0 7.7256 1.3229 10.715 3.5551v0.0004066c0.13589 0.10158 0.27064 0.20444 0.40379 0.30959 0.006 0.00478 0.0109 0.00923 0.0168 0.013753 0.12143 0.096237 0.24153 0.194 0.35999 0.29329 0.0364 0.03029 0.0717 0.061107 0.10838 0.092161 0.0875 0.074089 0.17389 0.14843 0.26026 0.22405 0.0613 0.054478 0.12189 0.10998 0.18325 0.16573 0.0586 0.052988 0.11743 0.10591 0.17515 0.15963 0.0839 0.077403 0.16479 0.15607 0.24677 0.23525 0.0344 0.032853 0.0686 0.065429 0.10254 0.09878 0.10139 0.099553 0.20069 0.19986 0.29972 0.3017 0.0135 0.014002 0.0268 0.027468 0.0403 0.04146 0.46183 0.4794 0.89743 0.98375 1.3037 1.512l0.001-0.000204c0.0888 0.11534 0.17593 0.23194 0.26198 0.34931 0.35533-0.04812 0.71134-0.07335 1.0673-0.07309 0.50019-0.000856 0.99333 0.04735 1.4764 0.14308-0.74698-1.2052-1.6188-2.326-2.5979-3.3431l-0.0222-0.023671c-0.0415-0.042751-0.0834-0.085292-0.12525-0.12781-0.0359-0.03666-0.0717-0.074089-0.10846-0.11049-0.0166-0.016801-0.0333-0.033092-0.0502-0.049648-3.63-3.6065-8.62-5.8362-14.13-5.8362-7.109 1.8242e-7 -13.353 3.7117-16.9 9.3033 0.0072-0.0018 0.01463-0.0034 0.02198-0.0048-0.04223 0.06542-0.08299 0.13162-0.1232 0.19756 0.43838-0.06441 0.88748-0.09776 1.3455-0.09776"/>
  <path d="m22.596 10.413-13.068 19.03h5.8365l7.1553-11.875h0.05049l4.8464-7.1553h-4.821z"/>
 </g>
 <g fill="#005bd2">
  <path d="m27.417 10.413v19.031h-4.8462v-11.875l4.8462-7.1553z"/>
  <path d="m91.264 29.444c-0.50738 0-1.0318-0.05067-1.5731-0.15251-0.54179-0.10132-1.0701-0.25739-1.5858-0.46921-0.51609-0.21106-0.99396-0.47736-1.4339-0.79917-0.43948-0.3213-0.80302-0.70191-1.0907-1.1416-0.3383-0.52447-0.5754-1.0489-0.71055-1.5734-0.13548-0.52446-0.24571-1.0825-0.32992-1.6747h4.7454c0.11758 0.54152 0.35485 0.96414 0.71028 1.2684 0.35519 0.30449 0.82008 0.45699 1.3954 0.45699 0.64289 0 1.1332-0.19451 1.4718-0.58377 0.33837-0.38877 0.50713-0.88802 0.50713-1.4973 0-0.54101-0.1441-0.94276-0.43129-1.205-0.28769-0.26198-0.6428-0.43994-1.0652-0.53286-0.42337-0.09268-0.87197-0.13086-1.3455-0.11432-0.47385 0.01731-0.88782 0.02545-1.2427 0.02545v-3.4507c0.33804 0 0.68861-0.0082 1.0522-0.02545 0.36379-0.01656 0.69833-0.0802 1.0028-0.19019 0.30399-0.10998 0.55398-0.29176 0.74826-0.54534 0.19445-0.25434 0.29172-0.60924 0.29172-1.0662 0-0.40582-0.10154-0.77777-0.30425-1.1164-0.20262-0.33809-0.53283-0.5074-0.98928-0.5074-0.52505 0-0.89286 0.14843-1.1039 0.44401-0.21185 0.29609-0.31748 0.67264-0.31748 1.1294h-4.6178c0.01644-0.89642 0.19044-1.6958 0.52012-2.398 0.32941-0.70166 0.77776-1.2941 1.345-1.7763 0.56618-0.48194 1.2264-0.85009 1.9789-1.1039 0.75235-0.25358 1.5607-0.38037 2.4232-0.38037 0.71036 0 1.4123 0.11025 2.106 0.32971 0.69348 0.22022 1.3066 0.54559 1.8397 0.97713 0.53264 0.43103 0.96419 0.95574 1.2944 1.5734 0.32968 0.61739 0.49493 1.3152 0.49493 2.093 0 0.91348-0.20775 1.679-0.62223 2.2967-0.41473 0.61764-1.0196 1.1378-1.814 1.5604 1.0657 0.33861 1.9069 0.87529 2.5245 1.6111 0.6177 0.73629 0.92622 1.6706 0.92622 2.8041 0 0.87963-0.19879 1.6747-0.59672 2.3853-0.39691 0.71031-0.92162 1.3109-1.5726 1.8015-0.65132 0.49085-1.3827 0.87121-2.1949 1.1416-0.81188 0.27088-1.624 0.40608-2.4362 0.40608"/>
  <path d="m111.07 16.478c0.6678 0.3386 1.2304 0.79916 1.6877 1.3829 0.45641 0.58354 0.79892 1.2602 1.0272 2.0296 0.22812 0.7704 0.34275 1.578 0.34275 2.4235 0 1.0321-0.18686 1.9833-0.55883 2.8545-0.37178 0.87172-0.88402 1.624-1.5348 2.2585-0.6515 0.6342-1.4204 1.1289-2.3091 1.4843-0.88779 0.3549-1.8394 0.53287-2.8542 0.53287-1.0658 0-2.0518-0.17338-2.9562-0.5204-0.90533-0.34649-1.6877-0.8371-2.3473-1.4715-0.65971-0.63445-1.176-1.3957-1.5479-2.2837-0.37227-0.88827-0.55889-1.8817-0.55889-2.9815 0-0.91348 0.16122-1.7844 0.48303-2.6136 0.32124-0.82845 0.73572-1.624 1.2432-2.3848l4.6689-6.8259h5.5316l-6.8259 10.936c-0.0339 0.05067-0.0672 0.11431-0.1014 0.19043-0.0349 0.07589-0.0674 0.13926-0.10134 0.19018-0.051 0.16931-0.0935 0.32996-0.12679 0.4822-0.0343 0.15224-0.0512 0.3045-0.0512 0.45674 0 0.72763 0.23272 1.3491 0.69818 1.8649 0.46455 0.51632 1.0781 0.77397 1.8396 0.77397 0.35498 0 0.69334-0.06365 1.0151-0.19044 0.32104-0.12679 0.60014-0.30424 0.83717-0.53262 0.23669-0.22862 0.42661-0.499 0.57098-0.81215 0.14308-0.31264 0.21563-0.65531 0.21563-1.0275 0-0.74443-0.25808-1.3532-0.77472-1.827-0.51555-0.47329-1.137-0.71058-1.8641-0.71058-0.23727 0-0.50765 0.04226-0.81215 0.12704l2.8421-4.3138c0.87879 0 1.6531 0.1693 2.3216 0.50767"/>
  <path d="m124.6 17.239c0-0.35566-0.0347-0.69402-0.10218-1.0153-0.0674-0.3213-0.18579-0.60899-0.35482-0.86282-0.16914-0.25383-0.38987-0.45674-0.66025-0.60898-0.27036-0.15225-0.61731-0.22837-1.04-0.22837-0.40548 0-0.74417 0.07614-1.0148 0.22837-0.2709 0.15225-0.49104 0.35516-0.66015 0.60898-0.16906 0.25383-0.29145 0.54585-0.36758 0.87555-0.0759 0.32944-0.11379 0.66398-0.11379 1.0026v5.379c0 0.3549 0.0377 0.69758 0.11379 1.0275 0.0761 0.32995 0.19852 0.61764 0.36758 0.86255 0.16911 0.24569 0.38925 0.44427 0.66015 0.59652 0.27063 0.15225 0.60932 0.22836 1.0148 0.22836 0.42269 0 0.76964-0.07614 1.04-0.22836 0.27038-0.15225 0.49111-0.35083 0.66025-0.59652 0.16904-0.24492 0.28711-0.5326 0.35482-0.86255 0.0672-0.32996 0.10218-0.67264 0.10218-1.0275v-5.379zm0.93892 11.545c-0.96497 0.43993-1.9713 0.65964-3.0205 0.65964-0.98051 0-1.9117-0.19425-2.7906-0.58352-1.3707-0.57487-2.3981-1.4122-3.0829-2.5123-0.68537-1.0993-1.0278-2.3853-1.0278-3.8568v-5.1257c0-1.4715 0.34243-2.7695 1.0278-3.8948 0.68486-1.1248 1.721-1.9578 3.1083-2.4993 0.92984-0.37196 1.8522-0.55832 2.7652-0.55832 0.98171 0 1.9117 0.21182 2.7915 0.63445 1.3534 0.57487 2.3507 1.4127 2.9943 2.5121 0.64266 1.0996 0.96422 2.3685 0.96422 3.8059v5.1257c0 1.3702-0.29642 2.6137-0.88783 3.73-0.59263 1.1166-1.5395 1.9708-2.8417 2.563"/>
 </g>
</svg>